<svg class="svg-icon" style="width: 1em;height: 1em;vertical-align: middle;fill: #eee;overflow: hidden;" viewBox="0 0 1024 1024" version="1.1" xmlns="http://www.w3.org/2000/svg"><path d="M874.04 149.96c-200.06-199.67-524.01-199.67-724.08 0-199.67 200.07-199.67 524.01 0 724.08 200.06 199.66 524.01 199.67 724.08 0 199.67-200.06 199.67-524.02 0-724.08zM248.42 874.04c0.05-0.72 0.08-1.44 0.08-2.17 0-70.35 27.42-136.53 77.14-186.34 49.8-49.81 115.89-77.13 186.34-77.13 70.35 0 136.53 27.42 186.34 77.13 49.8 49.81 77.13 115.99 77.13 186.34 0 0.74 0.03 1.47 0.08 2.2C701.59 928.01 610.52 959.89 512 960c-98.53-0.11-189.62-32-263.58-85.96z m100.86-496.08c0-89.73 73.07-162.79 162.79-162.79 89.73 0 162.79 73.06 162.79 162.79 0 89.73-73.06 162.8-162.79 162.8-89.72 0-162.79-73.06-162.79-162.8z m487.7 442.09c-10.99-70.16-44.21-132.98-92.24-180.93-32.27-32.27-71.13-57.75-114.44-74.52 61.72-39.15 102.71-108.14 102.71-186.63 0-122-98.94-220.93-220.93-220.93-122 0-220.93 98.94-220.93 220.93 0 78.49 40.99 147.49 102.71 186.63-43.31 16.66-82.17 42.25-114.44 74.52-48.05 48.04-81.27 110.83-92.36 180.98C110.91 739.81 64.14 631.37 64 512c0.29-247.3 200.7-447.71 448-448 247.3 0.29 447.71 200.7 448 448-0.14 119.35-46.89 227.77-123.02 308.05z"  /></svg>